<svg xmlns="http://www.w3.org/2000/svg" width="64" height="64" viewBox="0 0 116 115" fill="none">
  <path
    fill="#FF4438"
    d="M109.649 67.483c-7.946 10.012-16.528 21.454-33.692 21.454-15.33 0-21.042-13.522-21.443-24.507 3.358 7.102 9.926 12.854 20.172 12.588 19.706-.636 33.215-18.435 33.215-34.645C107.901 22.985 93.439 9 68.329 9c-17.958 0-40.207 6.834-54.827 17.64-.16 11.125 6.039 25.586 8.264 23.997 12.675-9.113 22.726-14.98 32.474-17.921C39.81 48.808 5.186 86.173.947 92.75 1.424 98.791 8.893 115 12.548 115c1.113 0 2.066-.636 3.179-1.748 10.438-11.728 18.947-22.243 26.516-32.378 1.062 14.854 8.367 33.014 28.788 33.014 18.276 0 36.393-13.191 44.657-42.909.953-3.655-3.497-6.516-6.039-3.496ZM88.83 43.486c0 9.376-9.217 13.985-17.64 13.985-4.502 0-7.96-1.182-10.696-2.719 5.033-7.62 10.014-15.434 15.367-23.8 9.438 1.598 12.97 6.844 12.97 12.534Z"
  />
</svg>
